<?xml version="1.0" encoding="UTF-8" standalone="no"?>
<!-- Created with Inkscape (http://www.inkscape.org/) -->

<svg
   width="800"
   height="400"
   viewBox="0 0 211.66667 105.83333"
   version="1.1"
   id="svg1607"
   inkscape:version="1.2 (dc2aedaf03, 2022-05-15)"
   sodipodi:docname="ic_logo_placeholder.svg"
   xmlns:inkscape="http://www.inkscape.org/namespaces/inkscape"
   xmlns:sodipodi="http://sodipodi.sourceforge.net/DTD/sodipodi-0.dtd"
   xmlns="http://www.w3.org/2000/svg"
   xmlns:svg="http://www.w3.org/2000/svg">
  <sodipodi:namedview
     id="namedview1609"
     pagecolor="#505050"
     bordercolor="#eeeeee"
     borderopacity="1"
     inkscape:showpageshadow="0"
     inkscape:pageopacity="0"
     inkscape:pagecheckerboard="0"
     inkscape:deskcolor="#505050"
     inkscape:document-units="mm"
     showgrid="false"
     inkscape:zoom="0.73851712"
     inkscape:cx="180.76765"
     inkscape:cy="149.62416"
     inkscape:window-width="1920"
     inkscape:window-height="1010"
     inkscape:window-x="-6"
     inkscape:window-y="-6"
     inkscape:window-maximized="1"
     inkscape:current-layer="layer1" />
  <defs
     id="defs1604" />
  <g
     inkscape:label="Layer 1"
     inkscape:groupmode="layer"
     id="layer1">
    <g
       aria-label="Vote"
       transform="scale(0.74777599,1.3372989)"
       id="text1665"
       style="font-size:60.4581px;line-height:1.25;fill:#c5c5c5;stroke-width:1.51145">
      <path
         d="M 70.291293,13.638181 54.874478,56.805264 H 49.433249 L 34.016434,13.638181 h 5.683061 l 9.733754,27.689809 q 0.96733,2.660156 1.571911,5.018022 0.665039,2.297408 1.148704,4.413442 0.423206,-2.116034 1.088245,-4.4739 0.665039,-2.357866 1.632369,-5.07848 l 9.673296,-27.568893 z"
         id="path3665" />
      <path
         d="m 102.39454,40.542035 q 0,8.040927 -4.111151,12.454368 -4.050693,4.413442 -11.003374,4.413442 -4.292526,0 -7.678179,-1.93466 -3.325196,-1.995117 -5.259855,-5.743519 -1.934659,-3.80886 -1.934659,-9.189631 0,-8.040927 3.990235,-12.393911 4.050692,-4.352983 11.063832,-4.352983 4.352983,0 7.738637,1.995118 3.385653,1.934659 5.259854,5.683061 1.93466,3.687944 1.93466,9.068715 z m -24.485531,0 q 0,5.743519 2.23695,9.129173 2.297408,3.325195 7.254972,3.325195 4.897106,0 7.194514,-3.325195 2.297407,-3.385654 2.297407,-9.129173 0,-5.74352 -2.297407,-9.008257 -2.297408,-3.264737 -7.254972,-3.264737 -4.957565,0 -7.194514,3.264737 -2.23695,3.264737 -2.23695,9.008257 z"
         id="path3667" />
      <path
         d="m 121.62019,53.056861 q 1.20916,0 2.47878,-0.181374 1.26962,-0.181374 2.05557,-0.483665 v 4.050693 q -0.84641,0.423207 -2.41832,0.665039 -1.57191,0.302291 -3.0229,0.302291 -2.53925,0 -4.71574,-0.846414 -2.11603,-0.906871 -3.44611,-3.083363 -1.33008,-2.176492 -1.33008,-6.106268 V 28.510873 h -4.59481 v -2.53924 l 4.65527,-2.116034 2.11604,-6.892223 h 3.14382 v 7.436346 h 9.371 v 4.111151 h -9.371 v 18.742011 q 0,2.962447 1.39053,4.413441 1.451,1.390536 3.68795,1.390536 z"
         id="path3669" />
      <path
         d="m 145.13839,23.795141 q 4.11115,0 7.13406,1.813743 3.0229,1.813743 4.59481,5.138939 1.63237,3.264737 1.63237,7.678178 v 3.20428 h -22.18812 q 0.12092,5.501687 2.78107,8.403675 2.72062,2.841531 7.55726,2.841531 3.08337,0 5.44123,-0.544123 2.41833,-0.604581 4.95757,-1.692827 v 4.655274 q -2.47878,1.088246 -4.89711,1.571911 -2.41832,0.544123 -5.74352,0.544123 -4.65527,0 -8.16184,-1.874202 -3.50657,-1.874201 -5.50169,-5.562145 -1.93466,-3.687944 -1.93466,-9.129173 0,-5.320312 1.75329,-9.129173 1.81374,-3.80886 5.01802,-5.864435 3.26474,-2.055576 7.55726,-2.055576 z m -0.0605,4.352983 q -3.80886,0 -6.04581,2.478782 -2.17649,2.418324 -2.59969,6.771308 h 16.50506 q -0.0605,-4.111151 -1.93466,-6.650391 -1.8742,-2.599699 -5.9249,-2.599699 z"
         id="path3671" />
    </g>
    <g
       aria-label="Rx"
       transform="scale(0.81399537,1.2285082)"
       id="text1723"
       style="font-size:68.6551px;line-height:1.25;fill:#55001a;stroke-width:1.71637">
      <path
         d="m 164.43008,13.971135 q 9.13113,0 13.4564,3.50141 4.39393,3.432755 4.39393,10.435575 0,3.913341 -1.44176,6.522234 -1.44176,2.608894 -3.70737,4.187961 -2.19697,1.579068 -4.66855,2.402929 l 13.4564,21.969631 h -7.20879 L 166.83301,42.737621 h -9.74902 v 20.253254 h -6.17896 v -49.01974 z m -0.34327,5.355098 h -7.00282 v 18.193601 h 7.34609 q 5.973,0 8.7192,-2.334273 2.7462,-2.402929 2.7462,-7.00282 0,-4.805857 -2.88351,-6.796855 -2.88351,-2.059653 -8.92516,-2.059653 z"
         id="path3674" />
      <path
         d="m 201.50382,44.179378 -12.7012,-17.987635 h 6.86551 l 9.47441,13.86833 9.40575,-13.86833 h 6.79685 l -12.70119,17.987635 13.38774,18.811497 h -6.86551 L 205.14254,48.298684 194.98158,62.990875 h -6.79685 z"
         id="path3676" />
    </g>
  </g>
</svg>
